name ./resultDataOpenSim/trcMotMarkerGrf/sub06/grf-14-04.mot
datacolumns 19
datarows 17
range 1.08400000 1.14800000
endheader

                time	     ground_force_vx	     ground_force_vy	     ground_force_vz	     ground_force_px	     ground_force_py	     ground_force_pz	   l_ground_force_vx	   l_ground_force_vy	   l_ground_force_vz	   l_ground_force_px	   l_ground_force_py	   l_ground_force_pz	     ground_torque_x	     ground_torque_y	     ground_torque_z	   l_ground_torque_x	   l_ground_torque_y	   l_ground_torque_z	
          1.08400000	          0.00000000	          0.00000000	          0.00000000	          0.00000000	          0.00000000	          0.00000000	        130.54337483	        619.03923286	         -8.35792957	          0.02954498	         -0.07500100	          0.03796780	          0.00000000	          0.00000000	          0.00000000	          0.00000000	         -2.75877679	          0.00000000	
          1.08800000	          0.00000000	          0.00000000	          0.00000000	          0.00000000	          0.00000000	          0.00000000	        134.90928259	        617.76951293	         -9.62416129	          0.03022320	         -0.07500100	          0.03838798	          0.00000000	          0.00000000	          0.00000000	          0.00000000	         -2.77369020	          0.00000000	
          1.09200000	          0.00000000	          0.00000000	          0.00000000	          0.00000000	          0.00000000	          0.00000000	        139.20751182	        614.76076657	        -10.91697843	          0.03101825	         -0.07500092	          0.03883899	          0.00000000	          0.00000000	          0.00000000	          0.00000000	         -2.78934849	          0.00000000	
          1.09600000	          0.00000000	          0.00000000	          0.00000000	          0.00000000	          0.00000000	          0.00000000	        143.32979786	        609.85351992	        -12.15232016	          0.03186821	         -0.07500000	          0.03930504	          0.00000000	          0.00000000	          0.00000000	          0.00000000	         -2.80464077	          0.00000000	
          1.10000000	          0.00000000	          0.00000000	          0.00000000	          0.00000000	          0.00000000	          0.00000000	        147.15932282	        602.88206833	        -13.28395698	          0.03270523	         -0.07500000	          0.03975740	          0.00000000	          0.00000000	          0.00000000	          0.00000000	         -2.81831285	          0.00000000	
          1.10400000	          0.00000000	          0.00000000	          0.00000000	          0.00000000	          0.00000000	          0.00000000	        150.57646771	        593.65693529	        -14.31861425	          0.03344810	         -0.07500000	          0.04016485	          0.00000000	          0.00000000	          0.00000000	          0.00000000	         -2.82959324	          0.00000000	
          1.10800000	          0.00000000	          0.00000000	          0.00000000	          0.00000000	          0.00000000	          0.00000000	        153.46611032	        581.96596154	        -15.28559569	          0.03407508	         -0.07499923	          0.04053127	          0.00000000	          0.00000000	          0.00000000	          0.00000000	         -2.83847823	          0.00000000	
          1.11200000	          0.00000000	          0.00000000	          0.00000000	          0.00000000	          0.00000000	          0.00000000	        155.72694305	        567.60072982	        -16.19951966	          0.03460574	         -0.07499902	          0.04086260	          0.00000000	          0.00000000	          0.00000000	          0.00000000	         -2.84560177	          0.00000000	
          1.11600000	          0.00000000	          0.00000000	          0.00000000	          0.00000000	          0.00000000	          0.00000000	        157.25269384	        550.40756567	        -17.05731329	          0.03507000	         -0.07499816	          0.04115605	          0.00000000	          0.00000000	          0.00000000	          0.00000000	         -2.85179041	          0.00000000	
          1.12000000	          0.00000000	          0.00000000	          0.00000000	          0.00000000	          0.00000000	          0.00000000	        157.90704972	        530.32543651	        -17.85229795	          0.03553695	         -0.07499800	          0.04142583	          0.00000000	          0.00000000	          0.00000000	          0.00000000	         -2.85738991	          0.00000000	
          1.12400000	          0.00000000	          0.00000000	          0.00000000	          0.00000000	          0.00000000	          0.00000000	        157.51784325	        507.35797611	        -18.56477651	          0.03609383	         -0.07499800	          0.04169589	          0.00000000	          0.00000000	          0.00000000	          0.00000000	         -2.86144206	          0.00000000	
          1.12800000	          0.00000000	          0.00000000	          0.00000000	          0.00000000	          0.00000000	          0.00000000	        155.87931843	        481.52228438	        -19.15296579	          0.03681360	         -0.07499752	          0.04198478	          0.00000000	          0.00000000	          0.00000000	          0.00000000	         -2.86090115	          0.00000000	
          1.13200000	          0.00000000	          0.00000000	          0.00000000	          0.00000000	          0.00000000	          0.00000000	        152.75924749	        452.86334495	        -19.57317808	          0.03772888	         -0.07499711	          0.04231734	          0.00000000	          0.00000000	          0.00000000	          0.00000000	         -2.85015924	          0.00000000	
          1.13600000	          0.00000000	          0.00000000	          0.00000000	          0.00000000	          0.00000000	          0.00000000	        147.91908764	        421.51711153	        -19.79873285	          0.03886416	         -0.07499636	          0.04272835	          0.00000000	          0.00000000	          0.00000000	          0.00000000	         -2.82114563	          0.00000000	
          1.14000000	          0.00000000	          0.00000000	          0.00000000	          0.00000000	          0.00000000	          0.00000000	        141.15178370	        387.76497826	        -19.81523459	          0.04024290	         -0.07499540	          0.04323616	          0.00000000	          0.00000000	          0.00000000	          0.00000000	         -2.76422047	          0.00000000	
          1.14400000	         -6.89479695	         69.64153220	          8.64935432	          0.73235538	          0.00000000	          0.09197888	        132.32955271	        352.07932694	        -19.60997828	          0.04188350	         -0.07499500	          0.04384998	          0.00000000	          0.98350258	          0.00000000	          0.00000000	         -2.66990295	          0.00000000	
          1.14800000	        -40.70805865	        357.01120773	          6.65325706	          0.73849726	          0.00000000	          0.08968840	        121.46458139	        315.14920027	        -19.17029480	          0.04380198	         -0.07499448	          0.04456902	          0.00000000	          1.52896439	          0.00000000	          0.00000000	         -2.53112702	          0.00000000	
